<svg width="1024" height="1024" viewBox="0 0 1024 1024" fill="none" xmlns="http://www.w3.org/2000/svg">
  <defs>
    <radialGradient id="bgGlow" cx="0" cy="0" r="1" gradientUnits="userSpaceOnUse" gradientTransform="translate(512 512) rotate(90) scale(460)">
      <stop stop-color="#2A233A"/>
      <stop offset="1" stop-color="#0F0F12"/>
    </radialGradient>
    <linearGradient id="scan" x1="180" y1="512" x2="844" y2="512" gradientUnits="userSpaceOnUse">
      <stop stop-color="#6E5AA6"/>
      <stop offset="1" stop-color="#B08BBF"/>
    </linearGradient>
    <filter id="blur" x="0" y="0" width="1024" height="1024">
      <feGaussianBlur stdDeviation="4"/>
    </filter>
  </defs>

  <rect x="0" y="0" width="1024" height="1024" rx="220" fill="url(#bgGlow)"/>
  <rect x="150" y="150" width="724" height="724" rx="190" stroke="#B08BBF" stroke-width="42"/>

  <g stroke="#F5F4F7" stroke-width="26" fill="none">
    <rect x="265" y="265" width="220" height="220" rx="24"/>
    <rect x="540" y="265" width="220" height="220" rx="24"/>
    <rect x="265" y="540" width="220" height="220" rx="24"/>
  </g>

  <g fill="#F5F4F7">
    <rect x="338" y="338" width="74" height="74" rx="8"/>
    <rect x="613" y="338" width="74" height="74" rx="8"/>
    <rect x="338" y="613" width="74" height="74" rx="8"/>
  </g>

  <g fill="#F5F4F7">
    <rect x="540" y="540" width="28" height="28" rx="6"/>
    <rect x="574" y="540" width="28" height="28" rx="6"/>
    <rect x="642" y="540" width="28" height="28" rx="6"/>
    <rect x="676" y="540" width="28" height="28" rx="6"/>

    <rect x="540" y="574" width="28" height="28" rx="6"/>
    <rect x="608" y="574" width="28" height="28" rx="6"/>
    <rect x="676" y="574" width="28" height="28" rx="6"/>

    <rect x="574" y="608" width="28" height="28" rx="6"/>
    <rect x="642" y="608" width="28" height="28" rx="6"/>
    <rect x="710" y="608" width="28" height="28" rx="6"/>

    <rect x="540" y="642" width="28" height="28" rx="6"/>
    <rect x="608" y="642" width="28" height="28" rx="6"/>
    <rect x="676" y="642" width="28" height="28" rx="6"/>

    <rect x="574" y="676" width="28" height="28" rx="6"/>
    <rect x="642" y="676" width="28" height="28" rx="6"/>
    <rect x="710" y="676" width="28" height="28" rx="6"/>

    <rect x="540" y="710" width="28" height="28" rx="6"/>
    <rect x="608" y="710" width="28" height="28" rx="6"/>
    <rect x="676" y="710" width="28" height="28" rx="6"/>
  </g>

  <rect x="178" y="502" width="668" height="20" rx="10" fill="url(#scan)"/>
  <rect x="178" y="502" width="668" height="20" rx="10" fill="url(#scan)" filter="url(#blur)" opacity="0.65"/>
</svg>
